# xmcd
#
# Track frame offsets:
#	150
#	18538
#	35902
#	52630
#	70170
#	83769
#	98579
#	116005
#	130849
#	151514
#	166636
#	180507
#
# Disc length: 2597 seconds
#
# Revision: 2
# Processed by: cddbd v1.5.2PL0 Copyright (c) Steve Scherf et al.
# Submitted via: EasyCDDAExtractor 11.1.0.1
#
DISCID=840a230c
DTITLE=Shemekia Copeland - Outskirts Of Love
DYEAR=2015
DGENRE=Blues
TTITLE0=Outskirts Of Love
TTITLE1=Crossbone Beach
TTITLE2=Devil's Hand
TTITLE3=The Battle is Over (But The War Goes On)
TTITLE4=Cardboard Box
TTITLE5=Drivin' Out Of Nashville
TTITLE6=I Feel A Sin Coming On
TTITLE7=Isn't That So
TTITLE8=Jesus Just Left Chicago
TTITLE9=Long As I Can See The Light
TTITLE10=Wrapped Up In Love Again
TTITLE11=Lord, Help The Poor And Needy
EXTD=
EXTT0=
EXTT1=
EXTT2=
EXTT3=
EXTT4=
EXTT5=
EXTT6=
EXTT7=
EXTT8=
EXTT9=
EXTT10=
EXTT11=
PLAYORDER=
